<svg xmlns="http://www.w3.org/2000/svg" width="64" height="64" viewBox="0 0 16.933 16.933" id="coffee-cup"><path fill="#e4eff8" d="m 0.7937517,6.2867695 v 0.3968618 l 0.26458,0.3963447 v 7.202937 c 0,1.101778 0.88704,1.98896 1.98903,1.98896 h 7.1344493 c 1.10199,0 1.98902,-0.887182 1.98902,-1.98896 V 7.079976 l 0.26459,-0.3963447 V 6.2867695 c -3.8805694,-0.01514 -7.7611093,-0.00689 -11.6416693,0 z"></path><path fill="#38668c" d="m 12.170831,13.096979 c 2.11667,-0.793724 2.64584,-0.806942 2.64584,-1.587447 V 9.8101079 c 0,-0.377695 -0.29021,-0.68176 -0.6507,-0.68176 h -1.99514 c 0,-0.4409529 0,-0.8819058 0,-1.3228587 h 2.7916 c 0.65215,0 1.17715,0.5372912 1.17715,1.2046877 v 3.0029271 c 0,1.274739 -0.8178,1.391218 -3.96517,2.508988"></path><path fill="#2c5170" d="m 15.610421,8.4808775 v 3.0865295 c 0,1.188456 -0.79126,1.398334 -3.43804,2.323295 l 0.002,0.631465 c 3.14737,-1.11777 3.96513,-1.234067 3.96513,-2.508807 V 9.0100269 c 0,-0.4779191 -0.2717,-0.8850377 -0.664005,-1.0800018 0.08354,0.1656152 0.134915,0.3509507 0.134915,0.5508524 z"></path><path fill="#2c5170" d="m 12.170831,8.5992127 v 0.5291492 h 2.53835 c 0.0369,0 0.0723,0.0052 0.10749,0.01137 -0.0619,-0.309346 -0.3225,-0.5405177 -0.63666,-0.5405177 z"></path><path fill="#38668c" d="m 12.434992,6.0122213 c 0,0.4707287 -2.6059783,0.8523297 -5.8206155,0.8523297 -3.2146371,0 -5.82061536,-0.381601 -5.82061525,-0.8523297 2.6e-7,-0.4707286 2.60597835,-0.8523296 5.82061525,-0.8523296 3.214637,0 5.8206155,0.3816009 5.8206155,0.8523296 z"></path><path fill="#c4dcf0" d="m 12.170831,7.0830767 -0.52916,0.00103 v 6.6696553 c 0,1.101778 -0.88704,1.98896 -1.9890296,1.98896 H 2.5181917 c -0.41511,0 -0.79955,-0.126295 -1.11776,-0.342087 0.35714,0.526434 0.96005,0.871238 1.64693,0.871238 h 7.1344493 c 1.10199,0 1.98902,-0.887182 1.98902,-1.98896 z"></path><path fill="#2c5170" d="m 6.6145816,5.1597443 a 5.8206152,0.85232966 0 0 0 -5.8208299,0.8526324 5.8206152,0.85232966 0 0 0 0.62167,0.3829095 5.8206152,0.85232966 0 0 1 5.72833,-0.706393 5.8206152,0.85232966 0 0 1 5.1986493,0.4697232 5.8206152,0.85232966 0 0 0 0.0925,-0.1462397 5.8206152,0.85232966 0 0 0 -5.8203194,-0.8526324 z"></path><path style="line-height:normal;font-variant-ligatures:normal;font-variant-position:normal;font-variant-caps:normal;font-variant-numeric:normal;font-variant-alternates:normal;font-feature-settings:normal;text-indent:0;text-align:start;text-decoration-line:none;text-decoration-style:solid;text-decoration-color:#000;text-transform:none;text-orientation:mixed;shape-padding:0;isolation:auto;mix-blend-mode:normal" d="m 6.873012,0.52916701 c -0.20251,0.01264 -0.31767,0.2141758 -0.23255,0.3834392 0.17554,0.36114799 0.18504,0.57875079 0.15245,0.72863769 -0.0341,0.1565798 -0.12826,0.2859073 -0.24805,0.4568196 -0.11979,0.1709133 -0.26632,0.3922828 -0.27905,0.6934977 -0.0127,0.3012159 0.10591,0.6394265 0.39429,1.0624674 0.19913,0.2917815 0.63683,-0.00692 0.4377,-0.2986897 -0.25266,-0.3706466 -0.30896,-0.595389 -0.30282,-0.7405232 0.006,-0.1451354 0.0717,-0.2524685 0.18345,-0.4118612 0.11171,-0.1593926 0.26944,-0.3616319 0.33228,-0.6506063 0.0628,-0.2889733 0.0194,-0.6326074 -0.19327,-1.07021889 -0.042,-0.090437 -0.13133,-0.1498364 -0.24443,-0.1529623 z m 2.117179,0 c -0.202499,0.01264 -0.317669,0.2141758 -0.232539,0.3834392 0.17553,0.36114799 0.185199,0.57797789 0.15244,0.72863769 -0.0341,0.1565798 -0.12824,0.2859073 -0.24804,0.4568196 -0.11979,0.1709133 -0.26633,0.3922828 -0.27906,0.6934977 -0.0127,0.3012159 0.10591,0.6394265 0.39429,1.0624674 0.199129,0.2917815 0.636829,-0.00692 0.437699,-0.2986897 -0.25266,-0.3706466 -0.308959,-0.595389 -0.302819,-0.7405232 0.006,-0.1451354 0.0717,-0.2524685 0.183449,-0.4118612 0.11172,-0.1593926 0.26944,-0.3616319 0.33228,-0.6506063 0.0628,-0.2889733 0.0162,-0.6392721 -0.19327,-1.07021889 -0.042,-0.090437 -0.13132,-0.1498364 -0.24443,-0.1529623 z m -4.441069,0.3834384 c 0.17553,0.36114799 0.18318,0.58492059 0.15193,0.72863759 -0.0341,0.1565799 -0.12826,0.2859074 -0.24805,0.4568197 -0.11979,0.1709133 -0.26632,0.3922828 -0.27905,0.6934977 -0.0127,0.3012159 0.10591,0.6394265 0.39429,1.0624674 0.20506,0.2933163 0.63786,-0.011099 0.43563,-0.2986897 -0.25266,-0.3706466 -0.30689,-0.595389 -0.30076,-0.7405232 0.006,-0.1451354 0.0717,-0.2524685 0.18346,-0.4118613 0.11172,-0.1593917 0.26737,-0.361631 0.33021,-0.6506054 0.0647,-0.2976499 0.0162,-0.6392721 -0.19327,-1.07021889 -0.0459,-0.098517 -0.14732,-0.1589803 -0.2558,-0.1524459 -0.18885,0.012729 -0.30365,0.2138486 -0.21859,0.382922 z M 2.460872,5.015714 c -0.5362,0.078518 -0.97386,0.1714667 -1.29656,0.283187 -0.16135,0.05586 -0.29762,0.1160991 -0.40979,0.1963703 -0.10729,0.076776 -0.22531,0.2046036 -0.22531,0.3855069 V 6.605282 c -1.2e-4,0.00465 -1.2e-4,0.0093 0,0.013951 0.0101,0.1940341 0.12106,0.3554405 0.26355,0.4811072 v 7.0502168 c 0,1.243807 1.00396,2.253609 2.25412,2.253609 h 7.134969 c 1.09206,0 2.00156,-0.769863 2.20968,-1.810225 1.48143,-0.523248 2.44965,-0.826124 3.0732,-1.168404 0.32235,-0.176942 0.56757,-0.37479 0.72502,-0.634587 0.15745,-0.259797 0.21446,-0.563046 0.21446,-0.910022 V 8.8769778 c 0,-0.8061538 -0.63655,-1.4686446 -1.44126,-1.4686446 h -2.52749 v -0.330212 c 0.15644,-0.1398053 0.27595,-0.3219725 0.26355,-0.5446696 V 5.8807782 c 0,-0.1809033 -0.11624,-0.3083348 -0.22841,-0.3886068 -0.10029,-0.071767 -0.24483,-0.1374095 -0.40618,-0.1932696 -0.3227,-0.1117203 -0.76035,-0.2046687 -1.29656,-0.283187 -1.07241,-0.1570366 -2.534929,-0.252181 -4.152719,-0.2521815 -1.61779,-3e-7 -3.08185,0.095144 -4.15427,0.2521807 z m 8.230509,0.5234824 c 0.51712,0.075723 0.93303,0.1671933 1.19941,0.2594157 0.0861,0.029801 0.14059,0.052771 0.19844,0.081132 -0.0507,0.026368 -0.112,0.051205 -0.19844,0.081132 -0.28988,0.1003572 -0.68229,0.1842095 -1.19941,0.2599324 -1.03424,0.1514459 -2.479389,0.2459797 -4.076239,0.2459797 -1.59685,0 -3.04355,-0.094534 -4.07779,-0.2459797 -0.51711,-0.075722 -0.93303,-0.1677093 -1.19941,-0.2599317 -0.0864,-0.029927 -0.14571,-0.055798 -0.19637,-0.082166 0.0444,-0.022161 0.1103,-0.050298 0.19637,-0.080098 0.26638,-0.092222 0.6823,-0.1836929 1.19941,-0.2594159 1.03424,-0.1514459 2.48094,-0.2459799 4.07779,-0.2459804 1.59685,-3e-7 3.041999,0.094534 4.076239,0.2459799 z M 1.058892,6.4213137 c 0.0353,0.013732 0.0671,0.026506 0.10542,0.039791 0.3227,0.1117203 0.76036,0.2046684 1.29656,0.2831867 1.07242,0.1570368 2.53648,0.2516642 4.15427,0.2516642 1.61779,0 3.080309,-0.094628 4.152719,-0.2516642 0.53621,-0.078518 0.97386,-0.1714664 1.29656,-0.2831867 0.0384,-0.013285 0.0702,-0.025027 0.10542,-0.038757 v 0.1266068 c -1.5e-4,0.00517 -1.5e-4,0.010337 0,0.015502 3.97e-4,0.00719 -0.006,0.048276 -0.0915,0.12299 -0.0913,0.079569 -0.25912,0.1771611 -0.48834,0.2697509 -0.45844,0.1851795 -1.16186,0.3561262 -2.04122,0.4707723 C 7.688262,7.6649691 5.769602,7.6480358 3.795132,7.4414077 2.901882,7.3311574 2.179912,7.172024 1.699132,6.9938888 1.458752,6.9048208 1.279752,6.8091546 1.175652,6.728272 1.071552,6.647389 1.059252,6.5993704 1.058862,6.5918459 Z m 10.847399,0.9777182 v 6.7515251 c 0,0.959748 -0.7727,1.724443 -1.72444,1.724443 H 3.046882 c -0.96001,0 -1.72444,-0.779164 -1.72444,-1.724443 V 7.4140179 c 0.0641,0.027794 0.12222,0.049638 0.19327,0.075965 0.54433,0.2016851 1.29475,0.3636945 2.2164,0.4780066 2.0103,0.2112323 3.97497,0.2262405 5.884919,-0.017052 0.90906,-0.1185188 1.64526,-0.2890306 2.17196,-0.5017781 0.0433,-0.017499 0.0768,-0.032041 0.1173,-0.050128 z m 0.52917,0.5384684 h 2.52749 c 0.50682,0 0.91209,0.4211722 0.91209,0.9394775 v 3.0039502 c 0,0.290395 -0.0442,0.479094 -0.13849,0.634587 -0.0942,0.155493 -0.25209,0.296276 -0.52762,0.447518 -0.50161,0.275344 -1.43155,0.583035 -2.77347,1.054716 v -0.869715 c 0.93415,-0.344827 1.56129,-0.539166 1.97094,-0.74569 0.21928,-0.11055 0.39499,-0.234751 0.51366,-0.411862 0.11867,-0.17711 0.16226,-0.388375 0.16226,-0.613399 V 9.6779628 c 0,-0.513228 -0.39868,-0.9456791 -0.91622,-0.9456791 h -1.73064 z M 6.349522,9.6216368 5.574382,10.395234 c -0.24062,0.265779 0.12167,0.618365 0.37465,0.37517 l 0.40049,-0.400492 v 0.574641 l -0.77514,0.773597 c -0.24248,0.255903 0.11839,0.618335 0.37465,0.37517 l 0.40049,-0.400492 v 0.840259 l -0.77514,0.773596 c -0.24041,0.253837 0.11632,0.618336 0.37465,0.375171 l 0.40049,-0.400492 v 1.800923 c -0.008,0.360688 0.53717,0.360688 0.52917,0 v -1.801957 l 0.40049,0.401526 c 0.25012,0.250066 0.62529,-0.125105 0.37517,-0.375171 l -0.77566,-0.773598 v -0.841292 l 0.40049,0.401525 c 0.25012,0.250066 0.62529,-0.125105 0.37517,-0.37517 l -0.77566,-0.773597 v -0.575674 l 0.40049,0.401525 c 0.25012,0.250162 0.62529,-0.125009 0.37517,-0.37517 L 6.878692,9.6216348 v -0.09612 c 0.003,-0.148951 -0.11613,-0.26863 -0.27879,-0.266392 -0.1492,0.01621 -0.25284,0.130038 -0.25038,0.266393 z m 6.085939,-0.361737 h 1.73064 c 0.20137,0 0.38654,0.1759 0.38654,0.418063 v 1.6991202 c 0,0.16523 -0.0257,0.248639 -0.0724,0.318327 -0.0467,0.06969 -0.13453,0.14456 -0.31212,0.234094 -0.30682,0.154683 -0.9046,0.352098 -1.73271,0.654741 z" color="#000" font-family="sans-serif" font-weight="400" overflow="visible"></path></svg>